# xmcd
#
# Track frame offsets:
#	150
#	13512
#	26420
#	37937
#	51227
#	61815
#	75615
#	94392
#	104067
#	119837
#	130310
#	142385
#	157697
#	169547
#
# Disc length: 2454 seconds
#
# Revision: 1
# Processed by: cddbd v1.5.2PL0 Copyright (c) Steve Scherf et al.
# Submitted via: EZCDAudioConverter 8.3.2.1
#
DISCID=bb09940e
DTITLE=The Shady Grove Band - Chapel Hillbilly Way
DYEAR=1995
DGENRE=Country
TTITLE0=Golden Highway
TTITLE1=Imprisoned By Her Memories
TTITLE2=Do Unto Others
TTITLE3=About Wright
TTITLE4=You Can't Do Wrong and Get By
TTITLE5=Across The Morning Sky
TTITLE6=I've Just Seen The Rock Of Ages
TTITLE7=Johnny Ridge
TTITLE8=Cold Heart Waltz
TTITLE9=Open Up The Door
TTITLE10=I Don't Know Why
TTITLE11=Wasted Tears
TTITLE12=Cruel Hearted Wind
TTITLE13=Will You Miss Me
EXTD=
EXTT0=
EXTT1=
EXTT2=
EXTT3=
EXTT4=
EXTT5=
EXTT6=
EXTT7=
EXTT8=
EXTT9=
EXTT10=
EXTT11=
EXTT12=
EXTT13=
PLAYORDER=
